<svg id="visual" viewBox="0 0 900 600" width="900" height="600" xmlns="http://www.w3.org/2000/svg" xmlns:xlink="http://www.w3.org/1999/xlink" version="1.1"><rect width="900" height="600" fill="#931F1F"></rect><g><g transform="translate(644 381)"><path d="M72.7 3.2C72.7 37.4 36.3 74.8 -1.3 74.8C-38.9 74.8 -77.7 37.4 -77.7 3.2C-77.7 -31 -38.9 -61.9 -1.3 -61.9C36.3 -61.9 72.7 -31 72.7 3.2Z" stroke="#F7760E" fill="none" stroke-width="20"></path></g><g transform="translate(180 474)"><path d="M40.7 -0.2C40.7 22.2 20.3 44.4 0.3 44.4C-19.7 44.4 -39.4 22.2 -39.4 -0.2C-39.4 -22.6 -19.7 -45.2 0.3 -45.2C20.3 -45.2 40.7 -22.6 40.7 -0.2Z" stroke="#F7760E" fill="none" stroke-width="20"></path></g><g transform="translate(263 96)"><path d="M65.7 -2.4C65.7 27.5 32.8 55 0.3 55C-32.2 55 -64.4 27.5 -64.4 -2.4C-64.4 -32.3 -32.2 -64.5 0.3 -64.5C32.8 -64.5 65.7 -32.3 65.7 -2.4Z" stroke="#F7760E" fill="none" stroke-width="20"></path></g><g transform="translate(575 96)"><path d="M41.3 -1.3C41.3 23.7 20.6 47.5 -1.4 47.5C-23.5 47.5 -47 23.7 -47 -1.3C-47 -26.4 -23.5 -52.8 -1.4 -52.8C20.6 -52.8 41.3 -26.4 41.3 -1.3Z" stroke="#F7760E" fill="none" stroke-width="20"></path></g><g transform="translate(885 98)"><path d="M38.2 -0.9C38.2 18.7 19.1 37.4 0 37.4C-19.2 37.4 -38.3 18.7 -38.3 -0.9C-38.3 -20.4 -19.2 -40.8 0 -40.8C19.1 -40.8 38.2 -20.4 38.2 -0.9Z" stroke="#F7760E" fill="none" stroke-width="20"></path></g><g transform="translate(794 591)"><path d="M61.1 3C61.1 32.7 30.6 65.3 -2 65.3C-34.5 65.3 -69 32.7 -69 3C-69 -26.6 -34.5 -53.2 -2 -53.2C30.6 -53.2 61.1 -26.6 61.1 3Z" stroke="#F7760E" fill="none" stroke-width="20"></path></g><g transform="translate(8 275)"><path d="M45.1 -1C45.1 23.5 22.6 46.9 -2.1 46.9C-26.8 46.9 -53.7 23.5 -53.7 -1C-53.7 -25.4 -26.8 -50.8 -2.1 -50.8C22.6 -50.8 45.1 -25.4 45.1 -1Z" stroke="#F7760E" fill="none" stroke-width="20"></path></g><g transform="translate(416 572)"><path d="M37.3 0.4C37.3 20.9 18.6 41.7 -1 41.7C-20.7 41.7 -41.4 20.9 -41.4 0.4C-41.4 -20 -20.7 -40 -1 -40C18.6 -40 37.3 -20 37.3 0.4Z" stroke="#F7760E" fill="none" stroke-width="20"></path></g><g transform="translate(381 319)"><path d="M53.3 3.3C53.3 33.3 26.6 66.5 0.2 66.5C-26.3 66.5 -52.6 33.3 -52.6 3.3C-52.6 -26.7 -26.3 -53.3 0.2 -53.3C26.6 -53.3 53.3 -26.7 53.3 3.3Z" stroke="#F7760E" fill="none" stroke-width="20"></path></g></g></svg>