<svg id="visual" viewBox="0 0 900 600" width="900" height="600" xmlns="http://www.w3.org/2000/svg" xmlns:xlink="http://www.w3.org/1999/xlink" version="1.1"><rect x="0" y="0" width="900" height="600" fill="#001220"></rect><defs><linearGradient id="grad1_0" x1="33.3%" y1="0%" x2="100%" y2="100%"><stop offset="20%" stop-color="#001220" stop-opacity="1"></stop><stop offset="80%" stop-color="#001220" stop-opacity="1"></stop></linearGradient></defs><defs><linearGradient id="grad2_0" x1="0%" y1="0%" x2="66.7%" y2="100%"><stop offset="20%" stop-color="#001220" stop-opacity="1"></stop><stop offset="80%" stop-color="#001220" stop-opacity="1"></stop></linearGradient></defs><g transform="translate(900, 0)"><path d="M0 486.7C-26.5 489.4 -53.1 492 -76.1 480.8C-99.2 469.5 -118.8 444.3 -139.4 428.9C-160 413.6 -181.6 408.1 -203.8 400.1C-226.1 392 -249.1 381.5 -263.9 363.2C-278.8 345 -285.6 319.2 -304.8 304.8C-324 290.4 -355.6 287.4 -377.8 274.5C-400.1 261.6 -412.9 238.8 -421.4 214.7C-429.9 190.7 -434.1 165.5 -433.7 140.9C-433.3 116.4 -428.5 92.5 -436.6 69.1C-444.7 45.8 -465.7 22.9 -486.7 0L0 0Z" fill="#FBAE3C"></path></g><g transform="translate(0, 600)"><path d="M0 -486.7C25.1 -479.4 50.2 -472 73.2 -462.2C96.2 -452.5 117.1 -440.4 140.9 -433.7C164.7 -427 191.5 -425.7 208.8 -409.9C226.2 -394.1 234.3 -363.8 255.7 -351.9C277.1 -340.1 311.9 -346.7 340.1 -340.1C368.3 -333.6 389.8 -313.9 393.8 -286.1C397.8 -258.3 384.2 -222.4 384.9 -196.1C385.6 -169.8 400.5 -153.2 412.8 -134.1C425 -115 434.6 -93.5 446.4 -70.7C458.3 -47.9 472.5 -24 486.7 0L0 0Z" fill="#FBAE3C"></path></g></svg>