<!--?xml version="1.0" standalone="no"?-->
              <svg id="sw-js-blob-svg" viewBox="0 0 100 100" xmlns="http://www.w3.org/2000/svg" version="1.1">
                    <defs> 
                        <linearGradient id="sw-gradient" x1="0" x2="1" y1="1" y2="0">
                            <stop id="stop1" stop-color="rgba(248, 117, 55, 1)" offset="0%"></stop>
                            <stop id="stop2" stop-color="rgba(251, 168, 31, 1)" offset="100%"></stop>
                        </linearGradient>
                    </defs>
                <path fill="url(#sw-gradient)" d="M23.9,-29.3C30.2,-23.2,34,-14.9,36.1,-6C38.1,3,38.4,12.7,34.4,20C30.3,27.3,21.9,32.3,14,32.5C6.1,32.8,-1.3,28.4,-10.1,26C-19,23.6,-29.3,23.2,-34.8,18C-40.3,12.8,-40.9,2.7,-38.7,-6.3C-36.4,-15.3,-31.3,-23.2,-24.3,-29.2C-17.4,-35.2,-8.7,-39.2,0,-39.2C8.8,-39.3,17.6,-35.4,23.9,-29.3Z" width="100%" height="100%" transform="translate(50 50)" stroke-width="0" style="transition: all 0.3s ease 0s;"></path>
              </svg>