<svg id="wave" style="transform:rotate(180deg); transition: 0.3s" viewBox="0 0 1440 300" version="1.1" xmlns="http://www.w3.org/2000/svg"><defs><linearGradient id="sw-gradient-0" x1="0" x2="0" y1="1" y2="0"><stop stop-color="rgba(70, 116, 214, 1)" offset="0%"></stop><stop stop-color="rgba(23.916, 30.325, 148.311, 1)" offset="100%"></stop></linearGradient></defs><path style="transform:translate(0, 0px); opacity:1" fill="url(#sw-gradient-0)" d="M0,180L48,160C96,140,192,100,288,105C384,110,480,160,576,150C672,140,768,70,864,70C960,70,1056,140,1152,175C1248,210,1344,210,1440,175C1536,140,1632,70,1728,70C1824,70,1920,140,2016,175C2112,210,2208,210,2304,205C2400,200,2496,190,2592,185C2688,180,2784,180,2880,195C2976,210,3072,240,3168,250C3264,260,3360,250,3456,215C3552,180,3648,120,3744,125C3840,130,3936,200,4032,215C4128,230,4224,190,4320,180C4416,170,4512,190,4608,165C4704,140,4800,70,4896,55C4992,40,5088,80,5184,110C5280,140,5376,160,5472,140C5568,120,5664,60,5760,45C5856,30,5952,60,6048,70C6144,80,6240,70,6336,85C6432,100,6528,140,6624,175C6720,210,6816,240,6864,255L6912,270L6912,300L6864,300C6816,300,6720,300,6624,300C6528,300,6432,300,6336,300C6240,300,6144,300,6048,300C5952,300,5856,300,5760,300C5664,300,5568,300,5472,300C5376,300,5280,300,5184,300C5088,300,4992,300,4896,300C4800,300,4704,300,4608,300C4512,300,4416,300,4320,300C4224,300,4128,300,4032,300C3936,300,3840,300,3744,300C3648,300,3552,300,3456,300C3360,300,3264,300,3168,300C3072,300,2976,300,2880,300C2784,300,2688,300,2592,300C2496,300,2400,300,2304,300C2208,300,2112,300,2016,300C1920,300,1824,300,1728,300C1632,300,1536,300,1440,300C1344,300,1248,300,1152,300C1056,300,960,300,864,300C768,300,672,300,576,300C480,300,384,300,288,300C192,300,96,300,48,300L0,300Z"></path></svg>