<svg id="visual" viewBox="0 0 900 600" width="900" height="600" xmlns="http://www.w3.org/2000/svg" xmlns:xlink="http://www.w3.org/1999/xlink" version="1.1"><g stroke-width="1" stroke-linejoin="bevel"><path d="M501 260L561 222L490 234Z" fill="#15384f" stroke="#15384f"></path><path d="M501 260L588 293L561 222Z" fill="#19435d" stroke="#19435d"></path><path d="M534 127L429 190L490 234Z" fill="#1d4e6b" stroke="#1d4e6b"></path><path d="M490 234L377 283L501 260Z" fill="#1d4e6b" stroke="#1d4e6b"></path><path d="M608 100L534 127L561 222Z" fill="#205a7a" stroke="#205a7a"></path><path d="M561 222L534 127L490 234Z" fill="#1d4e6b" stroke="#1d4e6b"></path><path d="M680 178L608 100L561 222Z" fill="#277297" stroke="#277297"></path><path d="M429 190L377 283L490 234Z" fill="#205a7a" stroke="#205a7a"></path><path d="M501 260L515 396L588 293Z" fill="#297ea6" stroke="#297ea6"></path><path d="M377 283L515 396L501 260Z" fill="#00101c" stroke="#00101c"></path><path d="M588 293L680 178L561 222Z" fill="#1d4e6b" stroke="#1d4e6b"></path><path d="M673 321L680 178L588 293Z" fill="#297ea6" stroke="#297ea6"></path><path d="M577 406L673 321L588 293Z" fill="#00101c" stroke="#00101c"></path><path d="M515 396L577 406L588 293Z" fill="#1d4e6b" stroke="#1d4e6b"></path><path d="M491 0L393 92L534 127Z" fill="#297ea6" stroke="#297ea6"></path><path d="M534 127L393 92L429 190Z" fill="#00101c" stroke="#00101c"></path><path d="M429 190L331 185L377 283Z" fill="#00101c" stroke="#00101c"></path><path d="M393 92L331 185L429 190Z" fill="#205a7a" stroke="#205a7a"></path><path d="M680 178L682 101L608 100Z" fill="#19435d" stroke="#19435d"></path><path d="M608 100L491 0L534 127Z" fill="#15384f" stroke="#15384f"></path><path d="M577 406L669 408L673 321Z" fill="#246688" stroke="#246688"></path><path d="M673 321L817 212L680 178Z" fill="#205a7a" stroke="#205a7a"></path><path d="M393 92L323 126L331 185Z" fill="#277297" stroke="#277297"></path><path d="M286 281L377 415L377 283Z" fill="#277297" stroke="#277297"></path><path d="M377 283L377 415L515 396Z" fill="#297ea6" stroke="#297ea6"></path><path d="M515 396L538 477L577 406Z" fill="#246688" stroke="#246688"></path><path d="M577 406L667 464L669 408Z" fill="#19435d" stroke="#19435d"></path><path d="M610 0L491 0L608 100Z" fill="#19435d" stroke="#19435d"></path><path d="M393 92L260 0L323 126Z" fill="#19435d" stroke="#19435d"></path><path d="M377 415L538 477L515 396Z" fill="#1d4e6b" stroke="#1d4e6b"></path><path d="M198 195L286 281L331 185Z" fill="#297ea6" stroke="#297ea6"></path><path d="M331 185L286 281L377 283Z" fill="#0c2435" stroke="#0c2435"></path><path d="M682 101L610 0L608 100Z" fill="#205a7a" stroke="#205a7a"></path><path d="M491 0L434 0L393 92Z" fill="#19435d" stroke="#19435d"></path><path d="M538 477L667 464L577 406Z" fill="#081a28" stroke="#081a28"></path><path d="M829 280L817 212L673 321Z" fill="#246688" stroke="#246688"></path><path d="M286 281L329 436L377 415Z" fill="#1d4e6b" stroke="#1d4e6b"></path><path d="M377 415L361 506L538 477Z" fill="#246688" stroke="#246688"></path><path d="M829 280L673 321L805 397Z" fill="#15384f" stroke="#15384f"></path><path d="M680 178L805 68L682 101Z" fill="#081a28" stroke="#081a28"></path><path d="M682 101L711 0L610 0Z" fill="#15384f" stroke="#15384f"></path><path d="M805 68L711 0L682 101Z" fill="#112e42" stroke="#112e42"></path><path d="M805 397L673 321L669 408Z" fill="#297ea6" stroke="#297ea6"></path><path d="M534 600L617 535L538 477Z" fill="#19435d" stroke="#19435d"></path><path d="M538 477L617 535L667 464Z" fill="#00101c" stroke="#00101c"></path><path d="M667 464L805 397L669 408Z" fill="#081a28" stroke="#081a28"></path><path d="M329 436L361 506L377 415Z" fill="#297ea6" stroke="#297ea6"></path><path d="M821 495L805 397L667 464Z" fill="#246688" stroke="#246688"></path><path d="M817 212L805 68L680 178Z" fill="#246688" stroke="#246688"></path><path d="M900 108L805 68L817 212Z" fill="#246688" stroke="#246688"></path><path d="M170 132L198 195L323 126Z" fill="#00101c" stroke="#00101c"></path><path d="M323 126L198 195L331 185Z" fill="#205a7a" stroke="#205a7a"></path><path d="M286 281L210 339L329 436Z" fill="#15384f" stroke="#15384f"></path><path d="M329 436L274 485L361 506Z" fill="#15384f" stroke="#15384f"></path><path d="M198 195L210 339L286 281Z" fill="#277297" stroke="#277297"></path><path d="M434 0L260 0L393 92Z" fill="#246688" stroke="#246688"></path><path d="M183 400L274 485L329 436Z" fill="#246688" stroke="#246688"></path><path d="M400 600L534 600L538 477Z" fill="#112e42" stroke="#112e42"></path><path d="M617 535L661 600L667 464Z" fill="#246688" stroke="#246688"></path><path d="M400 600L538 477L361 506Z" fill="#00101c" stroke="#00101c"></path><path d="M260 0L170 132L323 126Z" fill="#297ea6" stroke="#297ea6"></path><path d="M121 372L183 400L210 339Z" fill="#277297" stroke="#277297"></path><path d="M900 334L900 214L829 280Z" fill="#246688" stroke="#246688"></path><path d="M829 280L900 214L817 212Z" fill="#1d4e6b" stroke="#1d4e6b"></path><path d="M534 600L606 600L617 535Z" fill="#277297" stroke="#277297"></path><path d="M260 0L226 0L170 132Z" fill="#246688" stroke="#246688"></path><path d="M132 303L210 339L198 195Z" fill="#19435d" stroke="#19435d"></path><path d="M210 339L183 400L329 436Z" fill="#112e42" stroke="#112e42"></path><path d="M900 0L829 0L805 68Z" fill="#297ea6" stroke="#297ea6"></path><path d="M805 68L829 0L711 0Z" fill="#0c2435" stroke="#0c2435"></path><path d="M805 397L900 334L829 280Z" fill="#15384f" stroke="#15384f"></path><path d="M900 429L900 334L805 397Z" fill="#081a28" stroke="#081a28"></path><path d="M315 600L400 600L361 506Z" fill="#277297" stroke="#277297"></path><path d="M606 600L661 600L617 535Z" fill="#112e42" stroke="#112e42"></path><path d="M661 600L821 495L667 464Z" fill="#15384f" stroke="#15384f"></path><path d="M900 214L900 108L817 212Z" fill="#15384f" stroke="#15384f"></path><path d="M127 191L132 303L198 195Z" fill="#297ea6" stroke="#297ea6"></path><path d="M138 109L127 191L170 132Z" fill="#205a7a" stroke="#205a7a"></path><path d="M170 132L127 191L198 195Z" fill="#1d4e6b" stroke="#1d4e6b"></path><path d="M226 0L138 109L170 132Z" fill="#15384f" stroke="#15384f"></path><path d="M821 495L900 429L805 397Z" fill="#297ea6" stroke="#297ea6"></path><path d="M213 600L315 600L274 485Z" fill="#19435d" stroke="#19435d"></path><path d="M274 485L315 600L361 506Z" fill="#246688" stroke="#246688"></path><path d="M132 303L121 372L210 339Z" fill="#205a7a" stroke="#205a7a"></path><path d="M183 400L197 509L274 485Z" fill="#246688" stroke="#246688"></path><path d="M0 366L121 372L132 303Z" fill="#297ea6" stroke="#297ea6"></path><path d="M127 501L197 509L183 400Z" fill="#0c2435" stroke="#0c2435"></path><path d="M900 108L900 0L805 68Z" fill="#081a28" stroke="#081a28"></path><path d="M0 182L0 278L127 191Z" fill="#00101c" stroke="#00101c"></path><path d="M226 0L137 0L138 109Z" fill="#112e42" stroke="#112e42"></path><path d="M661 600L819 600L821 495Z" fill="#246688" stroke="#246688"></path><path d="M821 495L900 521L900 429Z" fill="#205a7a" stroke="#205a7a"></path><path d="M819 600L900 521L821 495Z" fill="#277297" stroke="#277297"></path><path d="M121 372L127 501L183 400Z" fill="#15384f" stroke="#15384f"></path><path d="M197 509L213 600L274 485Z" fill="#1d4e6b" stroke="#1d4e6b"></path><path d="M127 501L213 600L197 509Z" fill="#0c2435" stroke="#0c2435"></path><path d="M819 600L900 600L900 521Z" fill="#112e42" stroke="#112e42"></path><path d="M121 372L0 496L127 501Z" fill="#0c2435" stroke="#0c2435"></path><path d="M127 191L0 278L132 303Z" fill="#0c2435" stroke="#0c2435"></path><path d="M0 182L127 191L0 133Z" fill="#15384f" stroke="#15384f"></path><path d="M0 133L127 191L138 109Z" fill="#246688" stroke="#246688"></path><path d="M0 0L0 133L138 109Z" fill="#205a7a" stroke="#205a7a"></path><path d="M0 278L0 366L132 303Z" fill="#1d4e6b" stroke="#1d4e6b"></path><path d="M127 501L62 600L213 600Z" fill="#246688" stroke="#246688"></path><path d="M137 0L0 0L138 109Z" fill="#246688" stroke="#246688"></path><path d="M0 366L0 496L121 372Z" fill="#00101c" stroke="#00101c"></path><path d="M0 496L62 600L127 501Z" fill="#112e42" stroke="#112e42"></path><path d="M0 496L0 600L62 600Z" fill="#246688" stroke="#246688"></path></g></svg>