<svg id="visual" viewBox="0 0 900 600" width="900" height="600" xmlns="http://www.w3.org/2000/svg" xmlns:xlink="http://www.w3.org/1999/xlink" version="1.1"><rect x="0" y="0" width="900" height="600" fill="#887c01"></rect><g fill="#8d8922"><path d="M0 -95.3L21.4 -29.5L90.7 -29.5L34.6 11.3L56 77.1L0 36.4L-56 77.1L-34.6 11.3L-90.7 -29.5L-21.4 -29.5Z" transform="translate(329 352)"></path><path d="M0 -41.5L9.3 -12.8L39.5 -12.8L15.1 4.9L24.4 33.6L0 15.9L-24.4 33.6L-15.1 4.9L-39.5 -12.8L-9.3 -12.8Z" transform="translate(706 75)"></path><path d="M0 -61.3L13.8 -19L58.3 -19L22.3 7.2L36.1 49.6L0 23.4L-36.1 49.6L-22.3 7.2L-58.3 -19L-13.8 -19Z" transform="translate(627 409)"></path><path d="M0 -76.5L17.2 -23.6L72.7 -23.6L27.8 9L44.9 61.8L0 29.2L-44.9 61.8L-27.8 9L-72.7 -23.6L-17.2 -23.6Z" transform="translate(79 436)"></path><path d="M0 -53.8L12.1 -16.6L51.2 -16.6L19.5 6.4L31.6 43.5L0 20.5L-31.6 43.5L-19.5 6.4L-51.2 -16.6L-12.1 -16.6Z" transform="translate(852 320)"></path><path d="M0 -51L11.4 -15.7L48.5 -15.7L18.5 6L30 41.2L0 19.5L-30 41.2L-18.5 6L-48.5 -15.7L-11.4 -15.7Z" transform="translate(138 8)"></path><path d="M0 -49.1L11 -15.2L46.7 -15.2L17.8 5.8L28.8 39.7L0 18.7L-28.8 39.7L-17.8 5.8L-46.7 -15.2L-11 -15.2Z" transform="translate(501 202)"></path><path d="M0 -51L11.4 -15.7L48.5 -15.7L18.5 6L30 41.2L0 19.5L-30 41.2L-18.5 6L-48.5 -15.7L-11.4 -15.7Z" transform="translate(788 587)"></path><path d="M0 -59.5L13.3 -18.4L56.6 -18.4L21.6 7L35 48.1L0 22.7L-35 48.1L-21.6 7L-56.6 -18.4L-13.3 -18.4Z" transform="translate(438 548)"></path><path d="M0 -84L18.9 -26L79.9 -26L30.5 9.9L49.4 68L0 32.1L-49.4 68L-30.5 9.9L-79.9 -26L-18.9 -26Z" transform="translate(137 237)"></path><path d="M0 -49.1L11 -15.2L46.7 -15.2L17.8 5.8L28.8 39.7L0 18.7L-28.8 39.7L-17.8 5.8L-46.7 -15.2L-11 -15.2Z" transform="translate(344 30)"></path></g></svg>